<svg xmlns="http://www.w3.org/2000/svg" width="512" height="512" viewBox="0 0 512 512" role="img" aria-label="Co-bounce logomark">
    
    <defs>
      <linearGradient id="cbicon-dark-orbit" x1="76" y1="64" x2="440" y2="450" gradientUnits="userSpaceOnUse">
        <stop offset="0" stop-color="#00D1C7"/>
        <stop offset="0.52" stop-color="#5B5FFB"/>
        <stop offset="1" stop-color="#FF7A59"/>
      </linearGradient>
      <linearGradient id="cbicon-dark-bowl" x1="218" y1="170" x2="464" y2="424" gradientUnits="userSpaceOnUse">
        <stop offset="0" stop-color="#5B5FFB"/>
        <stop offset="1" stop-color="#00D1C7"/>
      </linearGradient>
      <linearGradient id="cbicon-dark-dot" x1="374" y1="86" x2="448" y2="158" gradientUnits="userSpaceOnUse">
        <stop offset="0" stop-color="#FF7A59"/>
        <stop offset="1" stop-color="#00D1C7"/>
      </linearGradient>
      <filter id="cbicon-dark-shadow" x="-20%" y="-20%" width="140%" height="140%">
        <feDropShadow dx="0" dy="18" stdDeviation="22" flood-color="#0E1726" flood-opacity="0.16"/>
      </filter>
      <filter id="cbicon-dark-softshadow" x="-20%" y="-20%" width="140%" height="140%">
        <feDropShadow dx="0" dy="10" stdDeviation="14" flood-color="#0E1726" flood-opacity="0.10"/>
      </filter>
    </defs>
    <rect x="24" y="24" width="464" height="464" rx="126" fill="#0E1726" filter="url(#cbicon-dark-shadow)"/>
    
    <g transform="translate(0 0) scale(1)">
      <path d="M340 95 C219 43 104 124 89 246 C73 376 186 475 338 418" fill="none" stroke="url(#cbicon-dark-orbit)" stroke-width="54" stroke-linecap="round" stroke-linejoin="round"/>
      <path d="M240 114 L240 386" fill="none" stroke="#FFFFFF" stroke-width="54" stroke-linecap="round"/>
      <path d="M240 246 C292 187 410 218 418 302 C427 397 312 439 240 374" fill="none" stroke="url(#cbicon-dark-bowl)" stroke-width="54" stroke-linecap="round" stroke-linejoin="round"/>
      <path d="M368 170 C333 185 300 212 275 246" fill="none" stroke="#C9CBFF" stroke-width="12" stroke-linecap="round" stroke-dasharray="1 26" opacity="0.95"/>
      <circle cx="405" cy="121" r="32" fill="url(#cbicon-dark-dot)"/>
      <circle cx="405" cy="121" r="48" fill="none" stroke="url(#cbicon-dark-dot)" stroke-width="2" opacity="0.22"/>
      <circle cx="90" cy="247" r="10" fill="#00D1C7" opacity="0.9"/>
      <circle cx="338" cy="418" r="10" fill="#FF7A59" opacity="0.9"/>
    </g>
    </svg>