<svg xmlns="http://www.w3.org/2000/svg" width="1600" height="620" viewBox="0 0 1600 620" role="img" aria-label="Co-bounce logo">
    
    <defs>
      <linearGradient id="cbprimary-orbit" x1="76" y1="64" x2="440" y2="450" gradientUnits="userSpaceOnUse">
        <stop offset="0" stop-color="#00D1C7"/>
        <stop offset="0.52" stop-color="#5B5FFB"/>
        <stop offset="1" stop-color="#FF7A59"/>
      </linearGradient>
      <linearGradient id="cbprimary-bowl" x1="218" y1="170" x2="464" y2="424" gradientUnits="userSpaceOnUse">
        <stop offset="0" stop-color="#5B5FFB"/>
        <stop offset="1" stop-color="#00D1C7"/>
      </linearGradient>
      <linearGradient id="cbprimary-dot" x1="374" y1="86" x2="448" y2="158" gradientUnits="userSpaceOnUse">
        <stop offset="0" stop-color="#FF7A59"/>
        <stop offset="1" stop-color="#00D1C7"/>
      </linearGradient>
      <filter id="cbprimary-shadow" x="-20%" y="-20%" width="140%" height="140%">
        <feDropShadow dx="0" dy="18" stdDeviation="22" flood-color="#0E1726" flood-opacity="0.16"/>
      </filter>
      <filter id="cbprimary-softshadow" x="-20%" y="-20%" width="140%" height="140%">
        <feDropShadow dx="0" dy="10" stdDeviation="14" flood-color="#0E1726" flood-opacity="0.10"/>
      </filter>
    </defs>
    
    
    <g transform="translate(92 82) scale(0.88)">
      <path d="M340 95 C219 43 104 124 89 246 C73 376 186 475 338 418" fill="none" stroke="url(#cbprimary-orbit)" stroke-width="54" stroke-linecap="round" stroke-linejoin="round"/>
      <path d="M240 114 L240 386" fill="none" stroke="#0E1726" stroke-width="54" stroke-linecap="round"/>
      <path d="M240 246 C292 187 410 218 418 302 C427 397 312 439 240 374" fill="none" stroke="url(#cbprimary-bowl)" stroke-width="54" stroke-linecap="round" stroke-linejoin="round"/>
      <path d="M368 170 C333 185 300 212 275 246" fill="none" stroke="#C9CBFF" stroke-width="12" stroke-linecap="round" stroke-dasharray="1 26" opacity="0.95"/>
      <circle cx="405" cy="121" r="32" fill="url(#cbprimary-dot)"/>
      <circle cx="405" cy="121" r="48" fill="none" stroke="url(#cbprimary-dot)" stroke-width="2" opacity="0.22"/>
      <circle cx="90" cy="247" r="10" fill="#00D1C7" opacity="0.9"/>
      <circle cx="338" cy="418" r="10" fill="#FF7A59" opacity="0.9"/>
    </g>
    
    <g transform="translate(572 295) scale(1)">
      <text x="0" y="0" font-family="Inter Display, Inter, Arial, sans-serif" font-size="132" font-weight="800" letter-spacing="-6" fill="#0E1726">co</text>
      <rect x="157" y="-51" width="53" height="15" rx="7.5" fill="#FF7A59"/>
      <path d="M174 -78 C188 -96 214 -96 229 -78" fill="none" stroke="#00D1C7" stroke-width="7" stroke-linecap="round"/>
      <circle cx="202" cy="-101" r="8" fill="#00D1C7"/>
      <text x="224" y="0" font-family="Inter Display, Inter, Arial, sans-serif" font-size="132" font-weight="800" letter-spacing="-6" fill="#0E1726">bounce</text>
      <text x="4" y="64" font-family="Inter, Arial, sans-serif" font-size="30" font-weight="600" letter-spacing="5" fill="#445168">SOFTWARE ENGINEERING FIRM</text>
    </g>
    </svg>