<svg xmlns="http://www.w3.org/2000/svg" width="2200" height="1600" viewBox="0 0 2200 1600">

    <defs>
      <linearGradient id="board-orbit" x1="76" y1="64" x2="440" y2="450" gradientUnits="userSpaceOnUse">
        <stop offset="0" stop-color="#00D1C7"/>
        <stop offset="0.52" stop-color="#5B5FFB"/>
        <stop offset="1" stop-color="#FF7A59"/>
      </linearGradient>
      <linearGradient id="board-bowl" x1="218" y1="170" x2="464" y2="424" gradientUnits="userSpaceOnUse">
        <stop offset="0" stop-color="#5B5FFB"/>
        <stop offset="1" stop-color="#00D1C7"/>
      </linearGradient>
      <linearGradient id="board-dot" x1="374" y1="86" x2="448" y2="158" gradientUnits="userSpaceOnUse">
        <stop offset="0" stop-color="#FF7A59"/>
        <stop offset="1" stop-color="#00D1C7"/>
      </linearGradient>
      <filter id="board-shadow" x="-20%" y="-20%" width="140%" height="140%">
        <feDropShadow dx="0" dy="18" stdDeviation="22" flood-color="#0E1726" flood-opacity="0.16"/>
      </filter>
      <filter id="board-softshadow" x="-20%" y="-20%" width="140%" height="140%">
        <feDropShadow dx="0" dy="10" stdDeviation="14" flood-color="#0E1726" flood-opacity="0.10"/>
      </filter>
    </defs>
<rect x="0" y="0" width="2200" height="1600" rx="0" fill="#F7F9FC" stroke="none" stroke-width="0" opacity="1"/>
<circle cx="2040" cy="90" r="260" fill="#00D1C7" opacity="0.1"/>
<circle cx="1480" cy="1480" r="320" fill="#FF7A59" opacity="0.09"/>
<text x="100" y="108" font-family="Inter, Arial, sans-serif" font-size="50" font-weight="850" text-anchor="start" fill="#0E1726">Co-bounce — Fresh Logo Concept</text>
<text x="102" y="152" font-family="Inter, Arial, sans-serif" font-size="24" font-weight="500" text-anchor="start" fill="#445168">A collaborative, kinetic identity for a modern software engineering firm.</text>
<rect x="100" y="210" width="1280" height="410" rx="34" fill="#FFFFFF" stroke="#E3E8F2" stroke-width="1" opacity="1"/>
<text x="144" y="264" font-family="Inter, Arial, sans-serif" font-size="22" font-weight="700" text-anchor="start" fill="#445168" letter-spacing="1">Primary lockup</text>

    <g transform="translate(180 325) scale(0.55)">
      <path d="M340 95 C219 43 104 124 89 246 C73 376 186 475 338 418" fill="none" stroke="url(#board-orbit)" stroke-width="54" stroke-linecap="round" stroke-linejoin="round"/>
      <path d="M240 114 L240 386" fill="none" stroke="#0E1726" stroke-width="54" stroke-linecap="round"/>
      <path d="M240 246 C292 187 410 218 418 302 C427 397 312 439 240 374" fill="none" stroke="url(#board-bowl)" stroke-width="54" stroke-linecap="round" stroke-linejoin="round"/>
      <path d="M368 170 C333 185 300 212 275 246" fill="none" stroke="#C9CBFF" stroke-width="12" stroke-linecap="round" stroke-dasharray="1 26" opacity="0.95"/>
      <circle cx="405" cy="121" r="32" fill="url(#board-dot)"/>
      <circle cx="405" cy="121" r="48" fill="none" stroke="url(#board-dot)" stroke-width="2" opacity="0.22"/>
      <circle cx="90" cy="247" r="10" fill="#00D1C7" opacity="0.9"/>
      <circle cx="338" cy="418" r="10" fill="#FF7A59" opacity="0.9"/>
    </g>

    <g transform="translate(480 475) scale(0.72)">
      <text x="0" y="0" font-family="Inter Display, Inter, Arial, sans-serif" font-size="132" font-weight="800" letter-spacing="-6" fill="#0E1726">co</text>
      <rect x="157" y="-51" width="53" height="15" rx="7.5" fill="#FF7A59"/>
      <path d="M174 -78 C188 -96 214 -96 229 -78" fill="none" stroke="#00D1C7" stroke-width="7" stroke-linecap="round"/>
      <circle cx="202" cy="-101" r="8" fill="#00D1C7"/>
      <text x="224" y="0" font-family="Inter Display, Inter, Arial, sans-serif" font-size="132" font-weight="800" letter-spacing="-6" fill="#0E1726">bounce</text>
      <text x="4" y="64" font-family="Inter, Arial, sans-serif" font-size="30" font-weight="600" letter-spacing="5" fill="#445168">SOFTWARE ENGINEERING FIRM</text>
    </g>
<rect x="1430" y="210" width="670" height="410" rx="34" fill="#0E1726" stroke="none" stroke-width="0" opacity="1"/>
<text x="1474" y="264" font-family="Inter, Arial, sans-serif" font-size="22" font-weight="700" text-anchor="start" fill="#B9C2D3" letter-spacing="1">Dark mode</text>

    <g transform="translate(1500 326) scale(0.5)">
      <path d="M340 95 C219 43 104 124 89 246 C73 376 186 475 338 418" fill="none" stroke="url(#board-orbit)" stroke-width="54" stroke-linecap="round" stroke-linejoin="round"/>
      <path d="M240 114 L240 386" fill="none" stroke="#FFFFFF" stroke-width="54" stroke-linecap="round"/>
      <path d="M240 246 C292 187 410 218 418 302 C427 397 312 439 240 374" fill="none" stroke="url(#board-bowl)" stroke-width="54" stroke-linecap="round" stroke-linejoin="round"/>
      <path d="M368 170 C333 185 300 212 275 246" fill="none" stroke="#C9CBFF" stroke-width="12" stroke-linecap="round" stroke-dasharray="1 26" opacity="0.95"/>
      <circle cx="405" cy="121" r="32" fill="url(#board-dot)"/>
      <circle cx="405" cy="121" r="48" fill="none" stroke="url(#board-dot)" stroke-width="2" opacity="0.22"/>
      <circle cx="90" cy="247" r="10" fill="#00D1C7" opacity="0.9"/>
      <circle cx="338" cy="418" r="10" fill="#FF7A59" opacity="0.9"/>
    </g>

    <g transform="translate(1744 462) scale(0.38)">
      <text x="0" y="0" font-family="Inter Display, Inter, Arial, sans-serif" font-size="132" font-weight="800" letter-spacing="-6" fill="#FFFFFF">co</text>
      <rect x="157" y="-51" width="53" height="15" rx="7.5" fill="#FF7A59"/>
      <path d="M174 -78 C188 -96 214 -96 229 -78" fill="none" stroke="#00D1C7" stroke-width="7" stroke-linecap="round"/>
      <circle cx="202" cy="-101" r="8" fill="#00D1C7"/>
      <text x="224" y="0" font-family="Inter Display, Inter, Arial, sans-serif" font-size="132" font-weight="800" letter-spacing="-6" fill="#FFFFFF">bounce</text>
      <text x="4" y="64" font-family="Inter, Arial, sans-serif" font-size="30" font-weight="600" letter-spacing="5" fill="#B9C2D3">SOFTWARE ENGINEERING FIRM</text>
    </g>
<rect x="100" y="690" width="530" height="620" rx="34" fill="#FFFFFF" stroke="#E3E8F2" stroke-width="1" opacity="1"/>
<text x="144" y="748" font-family="Inter, Arial, sans-serif" font-size="22" font-weight="700" text-anchor="start" fill="#445168" letter-spacing="1">Icon / app mark</text>
<rect x="170" y="830" width="330" height="330" rx="92" fill="#FFFFFF" stroke="#E3E8F2" stroke-width="1" opacity="1"/>

    <g transform="translate(194 855) scale(0.55)">
      <path d="M340 95 C219 43 104 124 89 246 C73 376 186 475 338 418" fill="none" stroke="url(#board-orbit)" stroke-width="54" stroke-linecap="round" stroke-linejoin="round"/>
      <path d="M240 114 L240 386" fill="none" stroke="#0E1726" stroke-width="54" stroke-linecap="round"/>
      <path d="M240 246 C292 187 410 218 418 302 C427 397 312 439 240 374" fill="none" stroke="url(#board-bowl)" stroke-width="54" stroke-linecap="round" stroke-linejoin="round"/>
      <path d="M368 170 C333 185 300 212 275 246" fill="none" stroke="#C9CBFF" stroke-width="12" stroke-linecap="round" stroke-dasharray="1 26" opacity="0.95"/>
      <circle cx="405" cy="121" r="32" fill="url(#board-dot)"/>
      <circle cx="405" cy="121" r="48" fill="none" stroke="url(#board-dot)" stroke-width="2" opacity="0.22"/>
      <circle cx="90" cy="247" r="10" fill="#00D1C7" opacity="0.9"/>
      <circle cx="338" cy="418" r="10" fill="#FF7A59" opacity="0.9"/>
    </g>
<text x="144" y="1225" font-family="Inter, Arial, sans-serif" font-size="21" font-weight="700" text-anchor="start" fill="#0E1726">Built from a “c” orbit + “b” system loop.</text>
<text x="144" y="1263" font-family="Inter, Arial, sans-serif" font-size="18" font-weight="500" text-anchor="start" fill="#445168">Dot-and-arc = rapid iteration.</text>
<rect x="680" y="690" width="700" height="620" rx="34" fill="#FFFFFF" stroke="#E3E8F2" stroke-width="1" opacity="1"/>
<text x="724" y="748" font-family="Inter, Arial, sans-serif" font-size="22" font-weight="700" text-anchor="start" fill="#445168" letter-spacing="1">Construction notes</text>

    <g transform="translate(760 820) scale(0.68)">
      <path d="M340 95 C219 43 104 124 89 246 C73 376 186 475 338 418" fill="none" stroke="url(#board-orbit)" stroke-width="54" stroke-linecap="round" stroke-linejoin="round"/>
      <path d="M240 114 L240 386" fill="none" stroke="#0E1726" stroke-width="54" stroke-linecap="round"/>
      <path d="M240 246 C292 187 410 218 418 302 C427 397 312 439 240 374" fill="none" stroke="url(#board-bowl)" stroke-width="54" stroke-linecap="round" stroke-linejoin="round"/>
      <path d="M368 170 C333 185 300 212 275 246" fill="none" stroke="#C9CBFF" stroke-width="12" stroke-linecap="round" stroke-dasharray="1 26" opacity="0.95"/>
      <circle cx="405" cy="121" r="32" fill="url(#board-dot)"/>
      <circle cx="405" cy="121" r="48" fill="none" stroke="url(#board-dot)" stroke-width="2" opacity="0.22"/>
      <circle cx="90" cy="247" r="10" fill="#00D1C7" opacity="0.9"/>
      <circle cx="338" cy="418" r="10" fill="#FF7A59" opacity="0.9"/>
    </g>
<path d="M987 885 C904 849 825 905 815 990 C804 1079 881 1147 986 1108" fill="none" stroke="#0E1726" stroke-width="2" stroke-dasharray="10 12" opacity="0.25"/>
<path d="M925 900 L925 1086" fill="none" stroke="#0E1726" stroke-width="2" stroke-dasharray="10 12" opacity="0.25"/>
<text x="724" y="1222" font-family="Inter, Arial, sans-serif" font-size="20" font-weight="750" text-anchor="start" fill="#0E1726">c = cooperative orbit</text>
<text x="724" y="1258" font-family="Inter, Arial, sans-serif" font-size="20" font-weight="750" text-anchor="start" fill="#0E1726">b = bounce, build, backend resilience</text>
<text x="724" y="1294" font-family="Inter, Arial, sans-serif" font-size="20" font-weight="750" text-anchor="start" fill="#0E1726">nodes = engineering handoffs + system endpoints</text>
<rect x="1430" y="690" width="670" height="620" rx="34" fill="#FFFFFF" stroke="#E3E8F2" stroke-width="1" opacity="1"/>
<text x="1474" y="748" font-family="Inter, Arial, sans-serif" font-size="22" font-weight="700" text-anchor="start" fill="#445168" letter-spacing="1">Palette</text>
<rect x="1474" y="804" width="54" height="54" rx="16" fill="#0E1726" stroke="#DCE2ED" stroke-width="1" opacity="1"/>
<text x="1552" y="828" font-family="Inter, Arial, sans-serif" font-size="22" font-weight="750" text-anchor="start" fill="#0E1726">Navy</text>
<text x="1552" y="855" font-family="Inter, Arial, sans-serif" font-size="18" font-weight="500" text-anchor="start" fill="#445168">#0E1726</text>
<rect x="1474" y="880" width="54" height="54" rx="16" fill="#5B5FFB" stroke="#DCE2ED" stroke-width="1" opacity="1"/>
<text x="1552" y="904" font-family="Inter, Arial, sans-serif" font-size="22" font-weight="750" text-anchor="start" fill="#0E1726">Indigo</text>
<text x="1552" y="931" font-family="Inter, Arial, sans-serif" font-size="18" font-weight="500" text-anchor="start" fill="#445168">#5B5FFB</text>
<rect x="1474" y="956" width="54" height="54" rx="16" fill="#00D1C7" stroke="#DCE2ED" stroke-width="1" opacity="1"/>
<text x="1552" y="980" font-family="Inter, Arial, sans-serif" font-size="22" font-weight="750" text-anchor="start" fill="#0E1726">Cyan</text>
<text x="1552" y="1007" font-family="Inter, Arial, sans-serif" font-size="18" font-weight="500" text-anchor="start" fill="#445168">#00D1C7</text>
<rect x="1474" y="1032" width="54" height="54" rx="16" fill="#FF7A59" stroke="#DCE2ED" stroke-width="1" opacity="1"/>
<text x="1552" y="1056" font-family="Inter, Arial, sans-serif" font-size="22" font-weight="750" text-anchor="start" fill="#0E1726">Coral</text>
<text x="1552" y="1083" font-family="Inter, Arial, sans-serif" font-size="18" font-weight="500" text-anchor="start" fill="#445168">#FF7A59</text>
<rect x="1474" y="1108" width="54" height="54" rx="16" fill="#F7F9FC" stroke="#DCE2ED" stroke-width="1" opacity="1"/>
<text x="1552" y="1132" font-family="Inter, Arial, sans-serif" font-size="22" font-weight="750" text-anchor="start" fill="#0E1726">Ice</text>
<text x="1552" y="1159" font-family="Inter, Arial, sans-serif" font-size="18" font-weight="500" text-anchor="start" fill="#445168">#F7F9FC</text>
<text x="1474" y="1218" font-family="Inter, Arial, sans-serif" font-size="22" font-weight="700" text-anchor="start" fill="#445168" letter-spacing="1">Typography</text>
<text x="1474" y="1268" font-family="Inter, Arial, sans-serif" font-size="34" font-weight="850" text-anchor="start" fill="#0E1726">Inter Display ExtraBold</text>
<text x="1474" y="1308" font-family="Inter, Arial, sans-serif" font-size="22" font-weight="650" text-anchor="start" fill="#445168">Inter SemiBold for supporting text</text>
<rect x="100" y="1370" width="2000" height="140" rx="34" fill="#FFFFFF" stroke="#E3E8F2" stroke-width="1" opacity="1"/>
<text x="144" y="1433" font-family="Inter, Arial, sans-serif" font-size="24" font-weight="800" text-anchor="start" fill="#0E1726">Suggested usage</text>
<text x="144" y="1473" font-family="Inter, Arial, sans-serif" font-size="20" font-weight="500" text-anchor="start" fill="#445168">Use the full lockup for websites, proposals, and headers. Use the app mark for favicon, social avatar, GitHub org, or product badges. Keep clearspace equal to the dot diameter.</text>
</svg>